PathFileType	4	(x/y/z)	A01_PREF_T0018.trc
DataRate	CameraRate	NumFrames	NumMarkers	Units	OrigDataRate	OrigDataStartFrame	OrigNumFrames
240	240	11	48	mm	240	214	285
Frame#	Time	TOP_HEAD			R_AC			L_AC			R_ASIS			L_ASIS			R_PSIS			L_PSIS			SACRAL			L_IC			R_IC			L_GT			R_GT			R_LAT_KNEE			R_MED_KNEE			L_MED_KNEE			L_LAT_KNEE			R_TOE			L_TOE			R_1ST_MET			L_1ST_MET			L_5TH_MET			R_5TH_MET			R_LAT_ANK			R_MED_ANK			L_MED_ANK			L_LAT_ANK			L_HEEL_SUP			R_HEEL_SUP			L_HEEL_LAT			R_HEEL_LAT			L_HEEL_MED			R_HEEL_MED			R_SHANK_PROX_POST			R_SHANK_PROX_ANT			R_SHANK_DIST_ANT			R_SHANK_DIST_POST			R_THIGH_PROX_POST			R_THIGH_PROX_ANT			R_THIGH_DIST_ANT			R_THIGH_DIST_POST			L_SHANK_PROX_ANT			L_SHANK_PROX_POST			L_SHANK_DIST_POST			L_SHANK_DIST_ANT			L_THIGH_PROX_ANT			L_THIGH_PROX_POST			L_THIGH_DIST_POST			L_THIGH_DIST_ANT			
		X1	Y1	Z1	X2	Y2	Z2	X3	Y3	Z3	X4	Y4	Z4	X5	Y5	Z5	X6	Y6	Z6	X7	Y7	Z7	X8	Y8	Z8	X9	Y9	Z9	X10	Y10	Z10	X11	Y11	Z11	X12	Y12	Z12	X13	Y13	Z13	X14	Y14	Z14	X15	Y15	Z15	X16	Y16	Z16	X17	Y17	Z17	X18	Y18	Z18	X19	Y19	Z19	X20	Y20	Z20	X21	Y21	Z21	X22	Y22	Z22	X23	Y23	Z23	X24	Y24	Z24	X25	Y25	Z25	X26	Y26	Z26	X27	Y27	Z27	X28	Y28	Z28	X29	Y29	Z29	X30	Y30	Z30	X31	Y31	Z31	X32	Y32	Z32	X33	Y33	Z33	X34	Y34	Z34	X35	Y35	Z35	X36	Y36	Z36	X37	Y37	Z37	X38	Y38	Z38	X39	Y39	Z39	X40	Y40	Z40	X41	Y41	Z41	X42	Y42	Z42	X43	Y43	Z43	X44	Y44	Z44	X45	Y45	Z45	X46	Y46	Z46	X47	Y47	Z47	X48	Y48	Z48	

214	0.89063	661.03	1750.4	343.34	452.38	1554.8	597.74	397.15	1554.7	140.19	428.02	1092.2	577.36	410.15	1034.4	224.62	202.71	1093.9	465.23	206.42	1090.6	333.15	189.7	1062	398.1	376.11	1150.5	185.07	402.65	1191.9	586.22	353.35	955.34	184.75	370.53	980.17	619.28	420.16	571.53	547.7	449.32	575.19	418.19	496.45	544.05	367.03	460.07	587.97	219.28	588.26	67.674	450.91	248.52	92.408	232.86	503.05	55.966	403.21	185.05	119.41	306.76	135.14	155.05	191.98	473.87	46.24	538.51	362.38	111.95	509.58	368.67	117.02	405.86	153.74	267.46	321.48	115.98	290.85	263.44	31.692	308.38	325.91	260.57	81.145	453.93	10.408	288.34	293.95	266.85	57.781	488.51	28.005	270.57	353.14	270.79	54.266	427.56	321.03	399.78	548.64	391.78	386.86	562.76	390.26	313.43	543.4	333.39	318.46	536.03	348.02	832.76	595.5	412.53	860.94	605.12	429.31	771.32	594.22	366.83	745.91	582.36	438.02	495.75	221.68	396.93	533.9	223.28	350.57	491.19	234.06	395.03	459.63	230.48	457.15	828.5	215.13	388.36	819.91	195.52	415.67	748.12	202.35	479	757.45	218.51
215	0.89481	666.14	1751.7	342.91	457.64	1556.4	597.58	402.2	1555.7	140.04	433.26	1093	577.42	415.4	1036	224.63	207.96	1095.2	465.24	211.72	1091.9	333.16	194.96	1063.3	398.04	381.19	1151.9	185.07	407.9	1193.3	586.27	359.03	956.87	184.65	375.39	981	619.17	421.72	572.05	547.49	450.75	575.54	417.93	504.63	547.11	367.48	468.48	589.87	219.32	588.41	67.544	450.92	264.97	90.961	233.41	503.17	55.932	403.19	200.61	117.24	306.75	150.87	151.57	191.51	473.97	46.274	538.48	362.76	112.49	509.53	369.06	117.47	405.81	166.84	264.81	320.69	129	287.32	262.34	44.006	303.72	324.11	260.88	82.043	453.91	23.326	283.2	292.05	267.08	58.676	488.5	40.814	265.93	351.44	271.07	55.102	427.54	322.05	400.55	548.42	392.77	387.44	562.57	391.06	314.01	543.23	334.17	319.2	535.86	351.56	833.87	595.26	416.39	861.52	604.93	432.5	771.75	594	369.71	746.88	582.1	447.91	497.31	221.9	406.23	534.78	223.11	360.51	491.34	233.79	405.48	460.53	230.59	463.97	830.71	215.29	395.28	821.63	195.46	423.04	750.04	202.35	486.28	759.83	218.71
216	0.89899	671.25	1753.1	342.46	462.89	1557.9	597.4	407.26	1556.6	139.88	438.47	1093.8	577.49	420.64	1037.6	224.65	213.19	1096.5	465.21	217.01	1093.1	333.14	200.21	1064.6	397.96	386.3	1153.2	185.07	413.12	1194.7	586.32	364.72	958.38	184.55	380.2	981.83	619.05	423.25	572.58	547.28	452.18	575.92	417.67	512.68	550.14	367.96	476.74	591.74	219.38	588.57	67.418	450.93	281.6	89.514	233.94	503.3	55.897	403.18	216.36	115	306.73	166.79	148.03	191.03	474.08	46.309	538.45	363.15	113.05	509.48	369.46	117.94	405.77	180.05	262.04	319.9	142.13	283.65	261.24	56.451	298.86	322.3	261.21	82.981	453.89	36.397	277.85	290.16	267.32	59.607	488.49	53.774	261.08	349.74	271.32	55.978	427.52	323.06	401.34	548.2	393.74	388.05	562.38	391.86	314.63	543.06	334.94	319.96	535.7	355.07	835	595.03	420.23	862.12	604.73	435.67	772.2	593.77	372.57	747.87	581.83	457.72	498.86	222.14	415.42	535.61	222.95	370.39	491.43	233.54	415.88	461.4	230.71	470.73	832.89	215.44	402.13	823.35	195.41	430.33	751.94	202.35	493.48	762.18	218.91
217	0.90317	676.35	1754.4	341.99	468.12	1559.4	597.22	412.33	1557.6	139.71	443.63	1094.6	577.56	425.89	1039.2	224.68	218.4	1097.8	465.14	222.29	1094.3	333.08	205.45	1065.8	397.83	391.47	1154.6	185.06	418.31	1196.1	586.39	370.41	959.86	184.45	384.97	982.65	618.91	424.76	573.14	547.07	453.62	576.31	417.42	520.6	553.13	368.44	484.86	593.58	219.46	588.72	67.298	450.94	298.41	88.078	234.45	503.44	55.861	403.17	232.28	112.71	306.69	182.89	144.43	190.54	474.19	46.344	538.42	363.54	113.64	509.44	369.88	118.44	405.73	193.38	259.14	319.12	155.38	279.85	260.14	69.033	293.79	320.51	261.55	83.959	453.87	49.625	272.3	288.29	267.56	60.573	488.48	66.891	256.03	348.04	271.56	56.893	427.49	324.05	402.16	547.97	394.69	388.69	562.2	392.65	315.27	542.9	335.71	320.74	535.53	358.54	836.13	594.78	424.06	862.73	604.52	438.79	772.67	593.54	375.41	748.88	581.56	467.43	500.4	222.4	424.52	536.4	222.82	380.22	491.46	233.31	426.22	462.25	230.85	477.43	835.05	215.57	408.93	825.04	195.36	437.53	753.83	202.36	500.59	764.49	219.12
218	0.90735	681.45	1755.7	341.51	473.34	1560.9	597.03	417.39	1558.6	139.54	448.75	1095.4	577.65	431.15	1040.7	224.71	223.58	1099	465.03	227.56	1095.5	332.99	210.68	1067.1	397.67	396.68	1155.9	185.05	423.48	1197.5	586.47	376.1	961.33	184.34	389.7	983.46	618.77	426.24	573.73	546.87	455.05	576.72	417.18	528.4	556.08	368.94	492.83	595.38	219.56	588.87	67.182	450.96	315.38	86.668	234.94	503.58	55.825	403.16	248.38	110.37	306.63	199.17	140.8	190.04	474.31	46.38	538.39	363.95	114.25	509.4	370.32	118.96	405.7	206.83	256.12	318.34	168.75	275.93	259.06	81.758	288.52	318.73	261.91	84.976	453.85	63.014	266.56	286.43	267.81	61.574	488.48	80.169	250.79	346.36	271.78	57.847	427.46	325.03	403	547.75	395.63	389.35	562.04	393.43	315.94	542.75	336.49	321.55	535.37	361.98	837.28	594.53	427.88	863.37	604.31	441.88	773.17	593.31	378.23	749.9	581.28	477.04	501.93	222.67	433.51	537.14	222.71	389.98	491.44	233.09	436.5	463.07	230.99	484.08	837.17	215.7	415.66	826.7	195.31	444.65	755.69	202.37	507.61	766.75	219.33
219	0.91153	686.55	1757	341.02	478.54	1562.4	596.83	422.46	1559.6	139.35	453.83	1096.1	577.74	436.43	1042.3	224.74	228.74	1100.3	464.88	232.83	1096.7	332.86	215.9	1068.3	397.47	401.93	1157.2	185.04	428.62	1198.8	586.55	381.79	962.77	184.22	394.37	984.28	618.62	427.7	574.34	546.67	456.5	577.15	416.96	536.06	558.96	369.44	500.65	597.14	219.69	589.02	67.071	450.97	332.5	85.295	235.39	503.72	55.789	403.16	264.64	108	306.56	215.63	137.13	189.54	474.45	46.416	538.36	364.37	114.88	509.37	370.77	119.51	405.68	220.39	253	317.57	182.24	271.89	257.99	94.631	283.07	316.98	262.27	86.031	453.84	76.569	260.65	284.59	268.07	62.609	488.48	93.614	245.37	344.7	271.97	58.838	427.43	325.99	403.86	547.53	396.56	390.05	561.88	394.21	316.63	542.6	337.26	322.37	535.21	365.4	838.44	594.27	431.69	864.02	604.11	444.93	773.68	593.09	381.04	750.94	581	486.55	503.44	222.96	442.4	537.82	222.63	399.68	491.35	232.89	446.71	463.86	231.15	490.68	839.25	215.81	422.32	828.34	195.26	451.69	757.52	202.38	514.55	768.97	219.54
220	0.91571	691.65	1758.2	340.51	483.72	1563.8	596.62	427.52	1560.6	139.17	458.87	1096.9	577.84	441.72	1043.8	224.77	233.88	1101.5	464.68	238.09	1097.8	332.69	221.11	1069.5	397.23	407.23	1158.5	185.03	433.73	1200.1	586.64	387.49	964.17	184.1	399	985.09	618.46	429.15	574.98	546.48	457.95	577.6	416.74	543.6	561.79	369.95	508.33	598.86	219.84	589.17	66.964	450.99	349.78	83.974	235.82	503.87	55.753	403.16	281.07	105.6	306.46	232.26	133.46	189.03	474.59	46.453	538.34	364.79	115.53	509.35	371.24	120.08	405.66	234.07	249.77	316.81	195.86	267.76	256.94	107.66	277.45	315.25	262.65	87.122	453.82	90.291	254.58	282.79	268.33	63.676	488.49	107.23	239.78	343.05	272.16	59.865	427.4	326.96	404.74	547.3	397.47	390.77	561.73	394.98	317.34	542.45	338.03	323.22	535.05	368.79	839.61	594.01	435.48	864.68	603.9	447.95	774.22	592.86	383.83	751.99	580.71	495.96	504.93	223.26	451.19	538.46	222.56	409.31	491.21	232.71	456.85	464.63	231.31	497.23	841.29	215.91	428.93	829.94	195.2	458.65	759.31	202.4	521.41	771.12	219.77
221	0.91989	696.75	1759.4	339.99	488.89	1565.3	596.41	432.59	1561.5	138.97	463.87	1097.6	577.94	447.03	1045.3	224.8	239	1102.7	464.44	243.35	1098.9	332.48	226.3	1070.6	396.95	412.57	1159.8	185.01	438.81	1201.3	586.74	393.18	965.55	183.97	403.57	985.9	618.29	430.58	575.63	546.29	459.42	578.07	416.54	551.01	564.54	370.46	515.85	600.52	220.02	589.31	66.862	451.01	367.19	82.716	236.21	504.03	55.717	403.16	297.66	103.2	306.35	249.05	129.8	188.52	474.74	46.491	538.32	365.22	116.2	509.33	371.72	120.67	405.65	247.86	246.46	316.06	209.6	263.54	255.9	120.84	271.66	313.56	263.05	88.249	453.81	104.18	248.35	281.03	268.6	64.774	488.5	121.02	234.03	341.43	272.32	60.925	427.36	327.91	405.64	547.08	398.38	391.51	561.59	395.75	318.08	542.32	338.8	324.09	534.89	372.17	840.78	593.75	439.25	865.35	603.69	450.94	774.78	592.65	386.61	753.05	580.43	505.25	506.4	223.56	459.87	539.04	222.51	418.87	491	232.54	466.91	465.37	231.48	503.72	843.29	216.01	435.47	831.51	195.14	465.53	761.07	202.42	528.18	773.22	220
222	0.92408	701.85	1760.6	339.46	494.03	1566.7	596.18	437.65	1562.5	138.77	468.83	1098.4	578.04	452.35	1046.7	224.83	244.1	1103.9	464.15	248.61	1100.1	332.23	231.49	1071.8	396.62	417.95	1161.1	184.99	443.86	1202.6	586.84	398.88	966.9	183.83	408.1	986.71	618.12	432.01	576.31	546.12	460.89	578.56	416.35	558.28	567.21	370.98	523.22	602.13	220.21	589.46	66.764	451.03	384.74	81.533	236.57	504.19	55.683	403.17	314.41	100.8	306.22	266	126.15	188	474.9	46.529	538.29	365.67	116.9	509.31	372.22	121.28	405.64	261.76	243.06	315.33	223.46	259.24	254.89	134.18	265.72	311.9	263.45	89.409	453.79	118.25	241.99	279.31	268.87	65.902	488.51	134.99	228.14	339.85	272.48	62.017	427.32	328.86	406.56	546.86	399.28	392.28	561.46	396.52	318.84	542.19	339.58	324.97	534.74	375.54	841.96	593.47	443.01	866.04	603.48	453.89	775.35	592.43	389.38	754.12	580.15	514.44	507.85	223.88	468.44	539.56	222.48	428.37	490.74	232.38	476.89	466.07	231.65	510.15	845.22	216.1	441.95	833.04	195.08	472.34	762.79	202.44	534.87	775.26	220.23
223	0.92826	706.95	1761.8	338.93	499.16	1568.1	595.95	442.72	1563.4	138.56	473.76	1099.1	578.15	457.7	1048.1	224.86	249.19	1105	463.81	253.87	1101.1	331.93	236.66	1072.9	396.25	423.37	1162.3	184.97	448.87	1203.8	586.93	404.59	968.2	183.69	412.57	987.53	617.93	433.43	577	545.95	462.37	579.07	416.17	565.42	569.8	371.5	530.43	603.67	220.42	589.61	66.671	451.05	402.42	80.439	236.89	504.35	55.65	403.18	331.31	98.416	306.06	283.11	122.53	187.48	475.08	46.569	538.27	366.12	117.61	509.31	372.73	121.92	405.64	275.75	239.58	314.61	237.44	254.88	253.9	147.69	259.64	310.27	263.87	90.6	453.78	132.49	235.49	277.64	269.16	67.058	488.53	149.15	222.12	338.29	272.63	63.139	427.29	329.82	407.5	546.63	400.17	393.06	561.33	397.29	319.62	542.08	340.37	325.88	534.58	378.91	843.14	593.19	446.73	866.73	603.27	456.83	775.94	592.22	392.16	755.2	579.86	523.51	509.28	224.2	476.9	540.02	222.47	437.8	490.42	232.23	486.79	466.75	231.82	516.52	847.1	216.2	448.38	834.53	195.02	479.07	764.46	202.48	541.48	777.22	220.48
224	0.93244	712.05	1762.9	338.38	504.26	1569.5	595.72	447.78	1564.3	138.35	478.65	1099.8	578.25	463.07	1049.5	224.89	254.26	1106.1	463.42	259.13	1102.2	331.59	241.83	1074	395.83	428.83	1163.6	184.94	453.86	1205	587.02	410.29	969.48	183.54	417	988.35	617.74	434.84	577.72	545.78	463.87	579.6	416	572.42	572.29	372.02	537.5	605.14	220.66	589.75	66.582	451.07	420.21	79.444	237.18	504.52	55.618	403.19	348.35	96.063	305.89	300.36	118.95	186.96	475.26	46.609	538.25	366.58	118.34	509.3	373.25	122.57	405.65	289.85	236.04	313.9	251.55	250.46	252.93	161.37	253.44	308.69	264.31	91.819	453.77	146.91	228.89	276.02	269.45	68.239	488.54	163.48	215.97	336.77	272.77	64.289	427.25	330.77	408.46	546.41	401.06	393.87	561.22	398.06	320.42	541.97	341.16	326.8	534.43	382.28	844.32	592.9	450.44	867.42	603.07	459.74	776.55	592.02	394.92	756.28	579.58	532.47	510.67	224.52	485.25	540.42	222.48	447.16	490.04	232.09	496.62	467.4	232	522.82	848.91	216.3	454.75	835.97	194.94	485.72	766.08	202.52	548	779.11	220.73
